<svg width="363" height="58" viewBox="0 0 363 58" fill="none" xmlns="http://www.w3.org/2000/svg">
<path d="M329.616 24.8652V45.5714H321.44V19.3064H329.107L329.616 24.8652ZM328.621 31.5407L326.753 31.5893C326.753 29.7444 326.972 28.0452 327.408 26.4916C327.845 24.938 328.492 23.5868 329.349 22.4378C330.207 21.2888 331.258 20.3987 332.503 19.7676C333.765 19.1364 335.221 18.8209 336.87 18.8209C338.019 18.8209 339.062 18.9989 340 19.3549C340.938 19.6947 341.747 20.2369 342.426 20.9813C343.106 21.7095 343.623 22.6643 343.979 23.8457C344.351 25.0109 344.537 26.4107 344.537 28.0452V45.5714H336.361V29.089C336.361 27.9724 336.232 27.1309 335.973 26.5644C335.73 25.998 335.374 25.6177 334.905 25.4235C334.436 25.2293 333.862 25.1322 333.183 25.1322C332.471 25.1322 331.832 25.2941 331.266 25.6177C330.7 25.9414 330.215 26.3945 329.81 26.9771C329.422 27.5435 329.123 28.2151 328.913 28.9919C328.718 29.7687 328.621 30.6183 328.621 31.5407ZM343.615 31.5407L341.335 31.5893C341.335 29.7444 341.537 28.0452 341.941 26.4916C342.362 24.938 342.984 23.5868 343.809 22.4378C344.65 21.2888 345.694 20.3987 346.939 19.7676C348.185 19.1364 349.632 18.8209 351.282 18.8209C352.479 18.8209 353.579 18.9989 354.582 19.3549C355.584 19.7109 356.45 20.2854 357.178 21.0784C357.905 21.8714 358.472 22.9233 358.876 24.2341C359.28 25.5287 359.482 27.1309 359.482 29.0404V45.5714H351.282V29.0404C351.282 27.9562 351.153 27.1389 350.894 26.5887C350.651 26.0223 350.295 25.642 349.826 25.4478C349.357 25.2374 348.799 25.1322 348.152 25.1322C347.376 25.1322 346.705 25.2941 346.138 25.6177C345.572 25.9414 345.095 26.3945 344.707 26.9771C344.335 27.5435 344.06 28.2151 343.882 28.9919C343.704 29.7687 343.615 30.6183 343.615 31.5407Z" fill="white"/>
<path d="M276.876 39.7455C277.636 39.7455 278.283 39.608 278.817 39.3329C279.367 39.0416 279.779 38.637 280.054 38.1191C280.345 37.5851 280.483 36.9459 280.467 36.2014H288.158C288.174 38.1758 287.689 39.9074 286.702 41.3962C285.732 42.8689 284.405 44.0178 282.723 44.8432C281.057 45.6523 279.173 46.0569 277.07 46.0569C275.016 46.0569 273.22 45.7252 271.684 45.0617C270.147 44.382 268.861 43.4433 267.826 42.2458C266.807 41.0321 266.039 39.6161 265.521 37.9978C265.02 36.3795 264.769 34.6236 264.769 32.7302V32.1719C264.769 30.2785 265.02 28.5226 265.521 26.9043C266.039 25.2698 266.807 23.8538 267.826 22.6562C268.861 21.4425 270.139 20.5039 271.66 19.8404C273.196 19.1607 274.984 18.8209 277.022 18.8209C279.205 18.8209 281.13 19.2335 282.796 20.0589C284.478 20.8842 285.796 22.0817 286.75 23.6515C287.705 25.2213 288.174 27.1228 288.158 29.356H280.467C280.483 28.563 280.362 27.851 280.103 27.2199C279.844 26.5887 279.44 26.087 278.89 25.7148C278.356 25.3264 277.668 25.1322 276.827 25.1322C275.986 25.1322 275.307 25.3184 274.789 25.6906C274.272 26.0628 273.876 26.5806 273.601 27.2441C273.342 27.8915 273.164 28.6359 273.067 29.4774C272.986 30.3189 272.946 31.2171 272.946 32.1719V32.7302C272.946 33.7012 272.986 34.6155 273.067 35.4732C273.164 36.3147 273.35 37.0591 273.625 37.7065C273.9 38.3376 274.296 38.8393 274.814 39.2115C275.331 39.5675 276.019 39.7455 276.876 39.7455Z" fill="white"/>
<path d="M251.28 41.7361C251.28 40.5709 251.7 39.5999 252.541 38.8231C253.382 38.0302 254.466 37.6337 255.792 37.6337C257.135 37.6337 258.218 38.0302 259.043 38.8231C259.884 39.5999 260.305 40.5709 260.305 41.7361C260.305 42.9012 259.884 43.8803 259.043 44.6733C258.218 45.4501 257.135 45.8385 255.792 45.8385C254.466 45.8385 253.382 45.4501 252.541 44.6733C251.7 43.8803 251.28 42.9012 251.28 41.7361Z" fill="white"/>
<path d="M221.777 32.7059V32.1961C221.777 30.2704 222.052 28.4983 222.602 26.88C223.152 25.2455 223.961 23.8295 225.028 22.632C226.096 21.4344 227.414 20.5039 228.983 19.8404C230.552 19.1607 232.364 18.8209 234.418 18.8209C236.488 18.8209 238.308 19.1607 239.877 19.8404C241.462 20.5039 242.788 21.4344 243.856 22.632C244.923 23.8295 245.732 25.2455 246.282 26.88C246.832 28.4983 247.107 30.2704 247.107 32.1961V32.7059C247.107 34.6155 246.832 36.3875 246.282 38.022C245.732 39.6403 244.923 41.0564 243.856 42.2701C242.788 43.4676 241.47 44.3981 239.901 45.0617C238.332 45.7252 236.52 46.0569 234.466 46.0569C232.412 46.0569 230.592 45.7252 229.007 45.0617C227.422 44.3981 226.096 43.4676 225.028 42.2701C223.961 41.0564 223.152 39.6403 222.602 38.022C222.052 36.3875 221.777 34.6155 221.777 32.7059ZM229.954 32.1961V32.7059C229.954 33.6931 230.026 34.6155 230.172 35.4732C230.318 36.3309 230.56 37.0834 230.9 37.7307C231.239 38.3619 231.7 38.8555 232.283 39.2115C232.865 39.5675 233.593 39.7455 234.466 39.7455C235.324 39.7455 236.035 39.5675 236.601 39.2115C237.184 38.8555 237.645 38.3619 237.984 37.7307C238.324 37.0834 238.567 36.3309 238.712 35.4732C238.858 34.6155 238.93 33.6931 238.93 32.7059V32.1961C238.93 31.2413 238.858 30.3432 238.712 29.5017C238.567 28.644 238.324 27.8915 237.984 27.2441C237.645 26.5806 237.184 26.0628 236.601 25.6906C236.019 25.3184 235.291 25.1322 234.418 25.1322C233.561 25.1322 232.841 25.3184 232.258 25.6906C231.692 26.0628 231.239 26.5806 230.9 27.2441C230.56 27.8915 230.318 28.644 230.172 29.5017C230.026 30.3432 229.954 31.2413 229.954 32.1961Z" fill="white"/>
<path d="M209.937 39.5513V8.28571H218.162V45.5714H210.787L209.937 39.5513ZM193.828 32.7545V32.2447C193.828 30.2542 194.046 28.4417 194.483 26.8072C194.919 25.1565 195.566 23.7405 196.424 22.5591C197.281 21.3616 198.348 20.4392 199.626 19.7918C200.904 19.1445 202.376 18.8209 204.042 18.8209C205.53 18.8209 206.832 19.1688 207.948 19.8647C209.064 20.5444 210.018 21.4992 210.811 22.7291C211.603 23.959 212.25 25.3993 212.752 27.0499C213.253 28.6844 213.633 30.4484 213.892 32.3418V32.9487C213.633 34.7288 213.253 36.4118 212.752 37.9978C212.25 39.5675 211.603 40.9593 210.811 42.173C210.018 43.3867 209.056 44.3415 207.924 45.0374C206.808 45.7171 205.498 46.0569 203.993 46.0569C202.327 46.0569 200.855 45.7252 199.578 45.0617C198.316 44.3981 197.257 43.4676 196.399 42.2701C195.558 41.0725 194.919 39.6646 194.483 38.0463C194.046 36.428 193.828 34.6641 193.828 32.7545ZM202.004 32.2447V32.7545C202.004 33.7416 202.069 34.656 202.198 35.4975C202.327 36.339 202.546 37.0834 202.853 37.7307C203.177 38.3619 203.597 38.8555 204.115 39.2115C204.648 39.5675 205.303 39.7455 206.08 39.7455C207.131 39.7455 207.997 39.4947 208.676 38.993C209.371 38.4913 209.881 37.7793 210.204 36.8569C210.544 35.9344 210.69 34.8502 210.641 33.6041V31.6864C210.673 30.6183 210.601 29.6797 210.423 28.8705C210.245 28.0452 209.962 27.3574 209.574 26.8072C209.202 26.257 208.724 25.8443 208.142 25.5692C207.576 25.2779 206.905 25.1322 206.128 25.1322C205.368 25.1322 204.721 25.3103 204.187 25.6663C203.67 26.0223 203.249 26.524 202.926 27.1713C202.602 27.8024 202.368 28.555 202.222 29.4288C202.077 30.2865 202.004 31.2252 202.004 32.2447Z" fill="white"/>
<path d="M174.831 24.9138V45.5714H166.654V19.3064H174.321L174.831 24.9138ZM173.86 31.5407L171.943 31.5893C171.943 29.5826 172.186 27.7944 172.671 26.2246C173.156 24.6387 173.844 23.2955 174.733 22.195C175.623 21.0946 176.683 20.2612 177.912 19.6947C179.157 19.1122 180.54 18.8209 182.061 18.8209C183.274 18.8209 184.382 18.9989 185.384 19.3549C186.403 19.7109 187.277 20.2854 188.005 21.0784C188.749 21.8714 189.315 22.9233 189.703 24.2341C190.107 25.5287 190.31 27.1309 190.31 29.0404V45.5714H182.085V29.0162C182.085 27.9643 181.939 27.1632 181.648 26.613C181.357 26.0466 180.936 25.6582 180.386 25.4478C179.837 25.2374 179.165 25.1322 178.373 25.1322C177.532 25.1322 176.82 25.2941 176.238 25.6177C175.655 25.9414 175.186 26.3945 174.831 26.9771C174.491 27.5435 174.24 28.2151 174.078 28.9919C173.933 29.7687 173.86 30.6183 173.86 31.5407Z" fill="white"/>
<path d="M154.038 38.9687V28.1423C154.038 27.3979 153.933 26.7586 153.723 26.2246C153.513 25.6906 153.181 25.2779 152.728 24.9866C152.275 24.6791 151.669 24.5254 150.909 24.5254C150.294 24.5254 149.768 24.6306 149.332 24.841C148.895 25.0513 148.563 25.3669 148.337 25.7877C148.11 26.2084 147.997 26.7425 147.997 27.3898H139.821C139.821 26.1761 140.088 25.0513 140.622 24.0156C141.171 22.9637 141.948 22.0494 142.951 21.2726C143.97 20.4958 145.183 19.897 146.59 19.4763C148.013 19.0393 149.598 18.8209 151.345 18.8209C153.432 18.8209 155.292 19.1688 156.925 19.8647C158.575 20.5605 159.877 21.6043 160.832 22.9961C161.786 24.3716 162.263 26.1032 162.263 28.1908V38.9445C162.263 40.6599 162.36 41.9626 162.554 42.8527C162.748 43.7266 163.023 44.4952 163.379 45.1588V45.5714H155.179C154.79 44.7623 154.499 43.7751 154.305 42.6099C154.127 41.4286 154.038 40.2148 154.038 38.9687ZM155.033 29.5259L155.082 33.8954H151.467C150.706 33.8954 150.059 34.0005 149.526 34.2109C149.008 34.4213 148.588 34.7126 148.264 35.0848C147.957 35.4408 147.73 35.8454 147.585 36.2985C147.455 36.7517 147.391 37.2291 147.391 37.7307C147.391 38.2162 147.504 38.6532 147.73 39.0416C147.973 39.4138 148.296 39.7051 148.701 39.9154C149.105 40.1258 149.558 40.231 150.059 40.231C150.965 40.231 151.733 40.0611 152.364 39.7213C153.011 39.3652 153.505 38.9364 153.844 38.4347C154.184 37.933 154.354 37.4637 154.354 37.0268L156.149 40.3767C155.826 41.024 155.454 41.6794 155.033 42.3429C154.629 43.0064 154.119 43.6214 153.505 44.1878C152.906 44.738 152.17 45.1911 151.297 45.5471C150.423 45.887 149.364 46.0569 148.118 46.0569C146.501 46.0569 145.013 45.7252 143.654 45.0617C142.312 44.3981 141.236 43.4757 140.427 42.2944C139.619 41.0968 139.214 39.7213 139.214 38.1677C139.214 36.8083 139.457 35.5946 139.942 34.5265C140.444 33.4584 141.196 32.5522 142.199 31.8077C143.201 31.0633 144.479 30.4969 146.032 30.1085C147.585 29.7201 149.412 29.5259 151.515 29.5259H155.033Z" fill="white"/>
<path d="M127.544 39.5513V8.28571H135.769V45.5714H128.394L127.544 39.5513ZM111.435 32.7545V32.2447C111.435 30.2542 111.653 28.4417 112.09 26.8072C112.526 25.1565 113.173 23.7405 114.031 22.5591C114.888 21.3616 115.955 20.4392 117.233 19.7918C118.511 19.1445 119.983 18.8209 121.649 18.8209C123.137 18.8209 124.439 19.1688 125.555 19.8647C126.671 20.5444 127.625 21.4992 128.418 22.7291C129.21 23.959 129.857 25.3993 130.359 27.0499C130.86 28.6844 131.24 30.4484 131.499 32.3418V32.9487C131.24 34.7288 130.86 36.4118 130.359 37.9978C129.857 39.5675 129.21 40.9593 128.418 42.173C127.625 43.3867 126.663 44.3415 125.531 45.0374C124.415 45.7171 123.105 46.0569 121.6 46.0569C119.934 46.0569 118.462 45.7252 117.185 45.0617C115.923 44.3981 114.864 43.4676 114.006 42.2701C113.165 41.0725 112.526 39.6646 112.09 38.0463C111.653 36.428 111.435 34.6641 111.435 32.7545ZM119.611 32.2447V32.7545C119.611 33.7416 119.676 34.656 119.805 35.4975C119.934 36.339 120.153 37.0834 120.46 37.7307C120.783 38.3619 121.204 38.8555 121.722 39.2115C122.255 39.5675 122.91 39.7455 123.687 39.7455C124.738 39.7455 125.603 39.4947 126.283 38.993C126.978 38.4913 127.488 37.7793 127.811 36.8569C128.151 35.9344 128.297 34.8502 128.248 33.6041V31.6864C128.28 30.6183 128.208 29.6797 128.03 28.8705C127.852 28.0452 127.569 27.3574 127.18 26.8072C126.808 26.257 126.331 25.8443 125.749 25.5692C125.183 25.2779 124.512 25.1322 123.735 25.1322C122.975 25.1322 122.328 25.3103 121.794 25.6663C121.277 26.0223 120.856 26.524 120.533 27.1713C120.209 27.8024 119.975 28.555 119.829 29.4288C119.684 30.2865 119.611 31.2252 119.611 32.2447Z" fill="white"/>
<path d="M92.4375 24.9138V45.5714H84.2612V19.3064H91.928L92.4375 24.9138ZM91.467 31.5407L89.5503 31.5893C89.5503 29.5826 89.7929 27.7944 90.2782 26.2246C90.7634 24.6387 91.4508 23.2955 92.3404 22.195C93.23 21.0946 94.2895 20.2612 95.5187 19.6947C96.7642 19.1122 98.1471 18.8209 99.6675 18.8209C100.881 18.8209 101.989 18.9989 102.991 19.3549C104.01 19.7109 104.884 20.2854 105.612 21.0784C106.356 21.8714 106.922 22.9233 107.31 24.2341C107.714 25.5287 107.917 27.1309 107.917 29.0404V45.5714H99.6917V29.0162C99.6917 27.9643 99.5462 27.1632 99.255 26.613C98.9639 26.0466 98.5434 25.6582 97.9934 25.4478C97.4435 25.2374 96.7722 25.1322 95.9797 25.1322C95.1386 25.1322 94.4269 25.2941 93.8447 25.6177C93.2624 25.9414 92.7933 26.3945 92.4375 26.9771C92.0978 27.5435 91.8471 28.2151 91.6853 28.9919C91.5398 29.7687 91.467 30.6183 91.467 31.5407Z" fill="white"/>
<path d="M70.0437 46.0569C67.9087 46.0569 66.0001 45.7252 64.3179 45.0617C62.6358 44.382 61.2124 43.4514 60.0478 42.2701C58.8994 41.0887 58.0179 39.7293 57.4033 38.192C56.8048 36.6546 56.5056 35.0282 56.5056 33.3128V32.3903C56.5056 30.4646 56.7725 28.6844 57.3063 27.0499C57.84 25.3993 58.6326 23.959 59.6839 22.7291C60.7353 21.4992 62.0535 20.5444 63.6386 19.8647C65.2237 19.1688 67.0676 18.8209 69.1703 18.8209C71.0304 18.8209 72.6963 19.1202 74.1682 19.719C75.6401 20.3178 76.8855 21.1755 77.9045 22.2921C78.9397 23.4088 79.7242 24.76 80.2579 26.346C80.8079 27.9319 81.0828 29.712 81.0828 31.6864V35.012H59.6354V29.8901H73.1007V29.2589C73.1169 28.385 72.9632 27.6406 72.6397 27.0257C72.3324 26.4107 71.8795 25.9414 71.2811 25.6177C70.6826 25.2941 69.9548 25.1322 69.0975 25.1322C68.2079 25.1322 67.472 25.3264 66.8897 25.7148C66.3236 26.1032 65.8788 26.6373 65.5553 27.317C65.248 27.9805 65.0296 28.7492 64.9002 29.623C64.7708 30.4969 64.7061 31.4194 64.7061 32.3903V33.3128C64.7061 34.2838 64.8355 35.1657 65.0943 35.9587C65.3693 36.7517 65.7575 37.4314 66.2589 37.9978C66.7765 38.548 67.3911 38.9768 68.1028 39.2843C68.8306 39.5918 69.6555 39.7455 70.5775 39.7455C71.6935 39.7455 72.7934 39.5351 73.8771 39.1144C74.9608 38.6936 75.8908 37.9978 76.6672 37.0268L80.3792 41.4447C79.8455 42.2053 79.0853 42.9417 78.0986 43.6537C77.1282 44.3658 75.9636 44.9484 74.6049 45.4015C73.2463 45.8384 71.7259 46.0569 70.0437 46.0569Z" fill="white"/>
<path d="M45.1996 19.3064H52.6237V44.5519C52.6237 46.9793 52.0657 49.0346 50.9497 50.7176C49.8336 52.4168 48.2728 53.7034 46.2671 54.5773C44.2777 55.4673 41.9485 55.9124 39.2797 55.9124C38.099 55.9124 36.894 55.7586 35.6647 55.4512C34.4355 55.1599 33.2871 54.7229 32.2195 54.1403C31.152 53.5577 30.2543 52.8376 29.5265 51.9799L32.9474 47.1735C33.6106 47.918 34.4435 48.5491 35.4464 49.067C36.4492 49.601 37.6299 49.868 38.9886 49.868C40.1693 49.868 41.156 49.6576 41.9485 49.2369C42.7573 48.8161 43.3719 48.2012 43.7924 47.392C44.213 46.599 44.4232 45.6362 44.4232 44.5033V25.5206L45.1996 19.3064ZM27.7554 32.7545V32.2447C27.7554 30.2542 27.998 28.4417 28.4832 26.8072C28.9846 25.1565 29.6963 23.7405 30.6183 22.5591C31.5564 21.3616 32.6886 20.4392 34.0149 19.7918C35.3412 19.1445 36.8374 18.8209 38.5034 18.8209C40.2987 18.8209 41.7706 19.1688 42.919 19.8647C44.0836 20.5444 45.0136 21.4992 45.7091 22.7291C46.4208 23.959 46.9707 25.3993 47.3589 27.0499C47.7633 28.6844 48.103 30.4484 48.3779 32.3418V32.9487C48.103 34.7288 47.7229 36.4118 47.2376 37.9978C46.7686 39.5675 46.1539 40.9593 45.3937 42.173C44.6335 43.3867 43.6792 44.3415 42.5308 45.0374C41.3986 45.7171 40.0399 46.0569 38.4548 46.0569C36.805 46.0569 35.317 45.7252 33.9907 45.0617C32.6805 44.3981 31.5564 43.4676 30.6183 42.2701C29.6963 41.0725 28.9846 39.6646 28.4832 38.0463C27.998 36.428 27.7554 34.6641 27.7554 32.7545ZM35.9316 32.2447V32.7545C35.9316 33.7416 36.0206 34.656 36.1985 35.4975C36.3926 36.339 36.6837 37.0834 37.0719 37.7307C37.4601 38.3619 37.9372 38.8555 38.5034 39.2115C39.0856 39.5675 39.765 39.7455 40.5414 39.7455C41.7221 39.7455 42.6764 39.4947 43.4042 38.993C44.1321 38.4913 44.6578 37.7793 44.9813 36.8569C45.3048 35.9344 45.4422 34.8502 45.3937 33.6041V31.6864C45.4261 30.6183 45.3533 29.6797 45.1754 28.8705C44.9974 28.0452 44.7144 27.3574 44.3262 26.8072C43.9542 26.257 43.4528 25.8443 42.822 25.5692C42.2073 25.2779 41.4633 25.1322 40.5899 25.1322C39.8297 25.1322 39.1584 25.3103 38.5761 25.6663C37.9939 26.0223 37.5086 26.524 37.1204 27.1713C36.7322 27.8024 36.433 28.555 36.2227 29.4288C36.0287 30.2865 35.9316 31.2252 35.9316 32.2447Z" fill="white"/>
<path d="M15.9399 38.9687V28.1423C15.9399 27.3979 15.8348 26.7586 15.6245 26.2246C15.4143 25.6906 15.0827 25.2779 14.6298 24.9866C14.1769 24.6791 13.5704 24.5254 12.8102 24.5254C12.1955 24.5254 11.6699 24.6306 11.2331 24.841C10.7964 25.0513 10.4649 25.3669 10.2384 25.7877C10.012 26.2084 9.89875 26.7425 9.89875 27.3898H1.72251C1.72251 26.1761 1.98939 25.0513 2.52315 24.0156C3.07309 22.9637 3.84947 22.0494 4.85229 21.2726C5.87128 20.4958 7.08437 19.897 8.49156 19.4763C9.91492 19.0393 11.5 18.8209 13.2469 18.8209C15.3334 18.8209 17.1935 19.1688 18.8271 19.8647C20.4769 20.5605 21.779 21.6043 22.7332 22.9961C23.6875 24.3716 24.1647 26.1032 24.1647 28.1908V38.9445C24.1647 40.6599 24.2617 41.9626 24.4558 42.8527C24.6499 43.7266 24.9249 44.4952 25.2807 45.1588V45.5714H17.0802C16.6921 44.7623 16.4009 43.7751 16.2068 42.6099C16.0289 41.4286 15.9399 40.2148 15.9399 38.9687ZM16.9347 29.5259L16.9832 33.8954H13.3682C12.608 33.8954 11.961 34.0005 11.4272 34.2109C10.9097 34.4213 10.4891 34.7126 10.1656 35.0848C9.85831 35.4408 9.63187 35.8454 9.48629 36.2985C9.3569 36.7517 9.2922 37.2291 9.2922 37.7307C9.2922 38.2162 9.40542 38.6532 9.63187 39.0416C9.87448 39.4138 10.198 39.7051 10.6023 39.9154C11.0067 40.1258 11.4596 40.231 11.961 40.231C12.8668 40.231 13.6351 40.0611 14.2659 39.7213C14.9129 39.3652 15.4062 38.9364 15.7458 38.4347C16.0855 37.933 16.2553 37.4637 16.2553 37.0268L18.0507 40.3767C17.7272 41.024 17.3552 41.6794 16.9347 42.3429C16.5303 43.0064 16.0208 43.6214 15.4062 44.1878C14.8077 44.738 14.0718 45.1911 13.1984 45.5471C12.3249 45.887 11.2655 46.0569 10.0201 46.0569C8.4026 46.0569 6.91454 45.7252 5.55588 45.0617C4.21339 44.3981 3.13779 43.4757 2.32906 42.2944C1.52033 41.0968 1.11597 39.7213 1.11597 38.1677C1.11597 36.8083 1.35859 35.5946 1.84382 34.5265C2.34523 33.4584 3.09735 32.5522 4.10017 31.8077C5.10299 31.0633 6.38078 30.4969 7.93354 30.1085C9.48629 29.7201 11.314 29.5259 13.4167 29.5259H16.9347Z" fill="white"/>
<path d="M315.282 28.2405C314.533 26.2381 313.314 24.5637 311.623 23.2173C309.932 21.8708 307.988 21.0595 305.79 20.7833V22.9929L315.282 28.2405ZM298.543 33.35L302.891 30.9333V20.7833C302.118 20.8524 301.369 21.0193 300.645 21.2839C299.92 21.5486 299.22 21.8651 298.543 22.2333V33.35ZM293.688 36.0429L295.645 34.9381V24.5119C294.703 25.5246 293.984 26.6524 293.489 27.8953C292.994 29.1381 292.746 30.427 292.746 31.7619C292.746 32.4984 292.825 33.2292 292.982 33.9542C293.139 34.6792 293.374 35.3754 293.688 36.0429ZM298.543 41.2905L308.688 35.7667L304.34 33.35L295.138 38.4595C295.621 39.0349 296.14 39.5643 296.696 40.0476C297.251 40.531 297.867 40.9453 298.543 41.2905ZM304.34 42.8095C306.152 42.8095 307.867 42.4183 309.485 41.6357C311.103 40.8532 312.456 39.7714 313.543 38.3905L311.586 37.3548L302.022 42.6024C302.408 42.6714 302.794 42.7232 303.181 42.7578C303.567 42.7923 303.954 42.8095 304.34 42.8095ZM314.992 36.0429C315.306 35.3754 315.542 34.6792 315.699 33.9542C315.856 33.2292 315.934 32.4984 315.934 31.7619L305.79 26.1691V30.9333L314.992 36.0429ZM304.34 45.5714C302.336 45.5714 300.452 45.2089 298.688 44.4839C296.925 43.7589 295.391 42.775 294.087 41.5322C292.783 40.2893 291.75 38.8278 290.989 37.1476C290.228 35.4675 289.848 33.6722 289.848 31.7619C289.848 29.8516 290.228 28.0564 290.989 26.3762C291.75 24.696 292.783 23.2345 294.087 21.9917C295.391 20.7488 296.925 19.7649 298.688 19.0399C300.452 18.3149 302.336 17.9524 304.34 17.9524C306.345 17.9524 308.229 18.3149 309.992 19.0399C311.756 19.7649 313.289 20.7488 314.594 21.9917C315.898 23.2345 316.931 24.696 317.691 26.3762C318.452 28.0564 318.833 29.8516 318.833 31.7619C318.833 33.6722 318.452 35.4675 317.691 37.1476C316.931 38.8278 315.898 40.2893 314.594 41.5322C313.289 42.775 311.756 43.7589 309.992 44.4839C308.229 45.2089 306.345 45.5714 304.34 45.5714Z" fill="white"/>
</svg>
