<svg width="91" height="91" viewBox="0 0 91 91" fill="none" xmlns="http://www.w3.org/2000/svg">
<circle cx="45.5" cy="45.5" r="45.5" fill="#71A8D9"/>
<path d="M71.3333 75L50.3333 54C48.6667 55.3333 46.75 56.3889 44.5833 57.1667C42.4167 57.9444 40.1111 58.3333 37.6667 58.3333C31.6111 58.3333 26.4861 56.2361 22.2917 52.0417C18.0972 47.8472 16 42.7222 16 36.6667C16 30.6111 18.0972 25.4861 22.2917 21.2917C26.4861 17.0972 31.6111 15 37.6667 15C43.7222 15 48.8472 17.0972 53.0417 21.2917C57.2361 25.4861 59.3333 30.6111 59.3333 36.6667C59.3333 39.1111 58.9444 41.4167 58.1667 43.5833C57.3889 45.75 56.3333 47.6667 55 49.3333L76 70.3333L71.3333 75ZM37.6667 51.6667C41.8333 51.6667 45.375 50.2083 48.2917 47.2917C51.2083 44.375 52.6667 40.8333 52.6667 36.6667C52.6667 32.5 51.2083 28.9583 48.2917 26.0417C45.375 23.125 41.8333 21.6667 37.6667 21.6667C33.5 21.6667 29.9583 23.125 27.0417 26.0417C24.125 28.9583 22.6667 32.5 22.6667 36.6667C22.6667 40.8333 24.125 44.375 27.0417 47.2917C29.9583 50.2083 33.5 51.6667 37.6667 51.6667Z" fill="#0F5FA6"/>
</svg>
